# xmcd
#
# Track frame offsets:
#	150
#	23430
#	43874
#	56542
#	65387
#	76899
#	83820
#	98383
#	112503
#	125779
#	140051
#	162682
#	176289
#	184324
#	194983
#	206101
#	217508
#	230496
#	243664
#	256875
#	280020
#	291772
#
# Disc length: 4040
#
# Revision: 4
# Processed by: cddbd v1.5.1PL0 Copyright (c) Steve Scherf et al.
# Submitted via: Kscd 1.3.3
# Normalized: r3:DSETVAR1
#
DISCID=390fc616
DTITLE=Various Artist - Gospel music - 100 and plus [CD1 of 5)
DYEAR=1900
DGENRE=
TTITLE0=The Edwin Hawkins Singers - Oh! Happy day
TTITLE1=Aretha Franklin - The day is past gone
TTITLE2=Paul Robeson - Swing low sweet chariot
TTITLE3=Paul Robeson - Joshua fit the battle of Jericho
TTITLE4=Paul Robeson - Ol'man river
TTITLE5=Paul Robeson - Didn't my Lord deliver Daniel
TTITLE6=Paul Robeson - Jacob's ladder
TTITLE7=Shirley Verrett - I'm a poor little orphan in this world
TTITLE8=Shirley Verrett - Roll Jord'n roll
TTITLE9=Shirley Verrett - Hold on
TTITLE10=Shirley Verrett - O Glory
TTITLE11=Mississippi Singers - Daniel saw the stone
TTITLE12=Mississippi Singers - Yes indeed
TTITLE13=Mississippi Singers - Talk about Jesus
TTITLE14=Mississippi Singers - Walk around
TTITLE15=Mississippi Singers - He'll never let go your hand
TTITLE16=The Oak Ridge Boys - That old country church
TTITLE17=Sarah Vaughan - The Lord's prayer
TTITLE18=Sister Rosetta Tharpe - Rock Daniel
TTITLE19=Harry Belafonte - Take my mother home
TTITLE20=Robert Martin Singers - Precious Memories
TTITLE21=Louis Armstrong - Shadrack
EXTD=
EXTT0=
EXTT1=
EXTT2=
EXTT3=
EXTT4=
EXTT5=
EXTT6=
EXTT7=
EXTT8=
EXTT9=
EXTT10=
EXTT11=
EXTT12=
EXTT13=
EXTT14=
EXTT15=
EXTT16=
EXTT17=
EXTT18=
EXTT19=
EXTT20=
EXTT21=
PLAYORDER=
